<?xml version="1.0" encoding="UTF-8" standalone="no"?>
<!DOCTYPE svg PUBLIC "-//W3C//DTD SVG 1.1//EN" "http://www.w3.org/Graphics/SVG/1.1/DTD/svg11.dtd">
<svg width="100%" height="100%" viewBox="0 0 72 72" version="1.1" xmlns="http://www.w3.org/2000/svg" xmlns:xlink="http://www.w3.org/1999/xlink" xml:space="preserve" xmlns:serif="http://www.serif.com/" style="fill-rule:evenodd;clip-rule:evenodd;stroke-linecap:round;stroke-linejoin:round;">
    <g id="Layer-1" serif:id="Layer 1">
        <g>
            <path d="M71.5,2.985L71.5,50.2C71.5,61.964 61.964,71.5 50.2,71.5L2.985,71.5C1.613,71.5 0.5,70.387 0.5,69.015L0.5,21.8C0.5,10.036 10.036,0.5 21.8,0.5L69.015,0.5C70.387,0.5 71.5,1.613 71.5,2.985Z" style="fill:rgb(143,180,185);stroke:rgb(143,180,185);stroke-opacity:0.8;stroke-width:0.2px;"/>
            <path d="M23.577,36.059C23.577,37.964 23.92,39.743 24.607,41.396C25.294,43.049 26.245,44.478 27.46,45.681C28.675,46.885 30.102,47.831 31.739,48.518C33.377,49.206 35.134,49.55 37.009,49.55C39.043,49.55 40.846,49.312 42.418,48.836C43.99,48.359 45.251,47.566 46.202,46.455L44.261,46.455C43.415,46.455 42.623,46.296 41.883,45.979C41.144,45.661 40.503,45.225 39.961,44.67C39.42,44.114 38.997,43.459 38.694,42.705C38.39,41.952 38.238,41.151 38.238,40.305C38.238,39.485 38.39,38.705 38.694,37.964C38.997,37.223 39.42,36.575 39.961,36.02C40.503,35.464 41.144,35.021 41.883,34.69C42.623,34.36 43.415,34.194 44.261,34.194L54.246,34.274C55.091,34.274 55.884,34.433 56.623,34.75C57.363,35.067 58.01,35.491 58.565,36.02C59.12,36.549 59.562,37.184 59.892,37.924C60.222,38.665 60.388,39.472 60.388,40.345C60.441,43.44 59.846,46.303 58.605,48.935C57.363,51.567 55.672,53.842 53.533,55.76C51.393,57.677 48.897,59.172 46.044,60.243C43.191,61.314 40.166,61.85 36.97,61.85C34.592,61.85 32.307,61.546 30.115,60.938C27.922,60.329 25.875,59.469 23.973,58.358C22.071,57.248 20.341,55.912 18.782,54.351C17.224,52.79 15.89,51.058 14.78,49.153C13.671,47.249 12.812,45.205 12.205,43.023C11.597,40.841 11.293,38.559 11.293,36.178C11.293,33.824 11.591,31.549 12.185,29.354C12.779,27.158 13.625,25.102 14.721,23.184C15.817,21.266 17.131,19.507 18.663,17.907C20.196,16.306 21.899,14.937 23.775,13.8C25.651,12.662 27.678,11.783 29.857,11.161C32.037,10.54 34.315,10.229 36.692,10.229C40.391,10.229 43.759,10.87 46.797,12.153C49.834,13.436 52.635,15.347 55.197,17.887C55.778,18.469 56.214,19.123 56.504,19.851C56.795,20.578 56.94,21.326 56.94,22.093C56.94,22.86 56.795,23.62 56.504,24.374C56.214,25.128 55.778,25.796 55.197,26.378C54.589,26.96 53.916,27.403 53.176,27.707C52.436,28.011 51.677,28.177 50.898,28.203C50.118,28.23 49.352,28.104 48.599,27.826C47.847,27.548 47.166,27.105 46.559,26.497C45.159,25.148 43.64,24.169 42.002,23.561C40.364,22.952 38.647,22.648 36.851,22.648C35.055,22.648 33.351,22.992 31.739,23.68C30.128,24.368 28.721,25.313 27.52,26.517C26.318,27.72 25.36,29.142 24.647,30.782C23.933,32.422 23.577,34.181 23.577,36.059Z" style="fill:rgb(239,239,239);fill-opacity:0.98;stroke:rgb(143,180,185);stroke-opacity:0.8;stroke-width:0.2px;"/>
        </g>
    </g>
</svg>
