<?xml version="1.0" encoding="UTF-8" standalone="no"?>
<!-- Created with Inkscape (http://www.inkscape.org/) -->

<svg
   width="512"
   height="512"
   viewBox="0 0 512 512"
   version="1.1"
   id="svg1"
   xmlns="http://www.w3.org/2000/svg"
   xmlns:svg="http://www.w3.org/2000/svg"
   xmlns:serif="http://www.serif.com/">
  <defs
     id="defs1" />
  <g
     id="layer1"
     transform="translate(-90,-131)">
    <g
       id="Layer-1"
       serif:id="Layer 1"
       style="clip-rule:evenodd;fill-rule:evenodd;stroke-linecap:round;stroke-linejoin:round"
       transform="matrix(7.1910112,0,0,7.1910112,87.123596,128.1236)">
        <g
   id="g2">
            <path
   d="M 71.5,2.985 V 50.2 c 0,11.764 -9.536,21.3 -21.3,21.3 H 2.985 C 1.613,71.5 0.5,70.387 0.5,69.015 V 21.8 C 0.5,10.036 10.036,0.5 21.8,0.5 h 47.215 c 1.372,0 2.485,1.113 2.485,2.485 z"
   style="fill:#8fb4b9;stroke:#8fb4b9;stroke-width:0.2px;stroke-opacity:0.8"
   id="path1" />

            <path
   d="m 23.577,36.059 c 0,1.905 0.343,3.684 1.03,5.337 0.687,1.653 1.638,3.082 2.853,4.285 1.215,1.204 2.642,2.15 4.279,2.837 1.638,0.688 3.395,1.032 5.27,1.032 2.034,0 3.837,-0.238 5.409,-0.714 1.572,-0.477 2.833,-1.27 3.784,-2.381 h -1.941 c -0.846,0 -1.638,-0.159 -2.378,-0.476 -0.739,-0.318 -1.38,-0.754 -1.922,-1.309 -0.541,-0.556 -0.964,-1.211 -1.267,-1.965 -0.304,-0.753 -0.456,-1.554 -0.456,-2.4 0,-0.82 0.152,-1.6 0.456,-2.341 0.303,-0.741 0.726,-1.389 1.267,-1.944 0.542,-0.556 1.183,-0.999 1.922,-1.33 0.74,-0.33 1.532,-0.496 2.378,-0.496 l 9.985,0.08 c 0.845,0 1.638,0.159 2.377,0.476 0.74,0.317 1.387,0.741 1.942,1.27 0.555,0.529 0.997,1.164 1.327,1.904 0.33,0.741 0.496,1.548 0.496,2.421 0.053,3.095 -0.542,5.958 -1.783,8.59 -1.242,2.632 -2.933,4.907 -5.072,6.825 -2.14,1.917 -4.636,3.412 -7.489,4.483 -2.853,1.071 -5.878,1.607 -9.074,1.607 -2.378,0 -4.663,-0.304 -6.855,-0.912 -2.193,-0.609 -4.24,-1.469 -6.142,-2.58 -1.902,-1.11 -3.632,-2.446 -5.191,-4.007 -1.558,-1.561 -2.892,-3.293 -4.002,-5.198 -1.109,-1.904 -1.968,-3.948 -2.575,-6.13 -0.608,-2.182 -0.912,-4.464 -0.912,-6.845 0,-2.354 0.298,-4.629 0.892,-6.824 0.594,-2.196 1.44,-4.252 2.536,-6.17 1.096,-1.918 2.41,-3.677 3.942,-5.277 1.533,-1.601 3.236,-2.97 5.112,-4.107 1.876,-1.138 3.903,-2.017 6.082,-2.639 2.18,-0.621 4.458,-0.932 6.835,-0.932 3.699,0 7.067,0.641 10.105,1.924 3.037,1.283 5.838,3.194 8.4,5.734 0.581,0.582 1.017,1.236 1.307,1.964 0.291,0.727 0.436,1.475 0.436,2.242 0,0.767 -0.145,1.527 -0.436,2.281 -0.29,0.754 -0.726,1.422 -1.307,2.004 -0.608,0.582 -1.281,1.025 -2.021,1.329 -0.74,0.304 -1.499,0.47 -2.278,0.496 -0.78,0.027 -1.546,-0.099 -2.299,-0.377 -0.752,-0.278 -1.433,-0.721 -2.04,-1.329 -1.4,-1.349 -2.919,-2.328 -4.557,-2.936 -1.638,-0.609 -3.355,-0.913 -5.151,-0.913 -1.796,0 -3.5,0.344 -5.112,1.032 -1.611,0.688 -3.018,1.633 -4.219,2.837 -1.202,1.203 -2.16,2.625 -2.873,4.265 -0.714,1.64 -1.07,3.399 -1.07,5.277 z"
   style="fill:#efefef;fill-opacity:0.98;stroke:#8fb4b9;stroke-width:0.2px;stroke-opacity:0.8"
   id="path2" />

        </g>

    </g>
  </g>
</svg>
